<?xml version="1.0" encoding="UTF-8"?>
<svg viewBox="0 0 800 600" xmlns="http://www.w3.org/2000/svg">
  <!-- Background -->
  <rect width="800" height="600" fill="#f9fafb" />
  
  <!-- Page title -->
  <rect x="20" y="20" width="760" height="60" rx="8" fill="#304c72" />
  <text x="40" y="57" font-family="Arial" font-size="24" fill="white">Allocation Management</text>
  
  <!-- Filter controls -->
  <rect x="20" y="100" width="760" height="70" rx="8" fill="white" stroke="#ddd" stroke-width="1" />
  
  <!-- Filter labels -->
  <text x="40" y="130" font-family="Arial" font-size="14" fill="#374151">Filter by:</text>
  
  <!-- Filter dropdowns -->
  <rect x="110" y="115" width="150" height="36" rx="4" fill="white" stroke="#ddd" stroke-width="1" />
  <text x="125" y="138" font-family="Arial" font-size="14" fill="#374151">Status: All</text>
  <path d="M245 125 L255 135 L235 135 Z" fill="#374151" />
  
  <rect x="280" y="115" width="150" height="36" rx="4" fill="white" stroke="#ddd" stroke-width="1" />
  <text x="295" y="138" font-family="Arial" font-size="14" fill="#374151">Date: This Month</text>
  <path d="M415 125 L425 135 L405 135 Z" fill="#374151" />
  
  <rect x="450" y="115" width="150" height="36" rx="4" fill="white" stroke="#ddd" stroke-width="1" />
  <text x="465" y="138" font-family="Arial" font-size="14" fill="#374151">Bill: All Bills</text>
  <path d="M585 125 L595 135 L575 135 Z" fill="#374151" />
  
  <!-- Search box -->
  <rect x="620" y="115" width="140" height="36" rx="4" fill="white" stroke="#ddd" stroke-width="1" />
  <text x="645" y="138" font-family="Arial" font-size="14" fill="#9ca3af">Search...</text>
  <circle cx="635" cy="133" r="8" stroke="#9ca3af" stroke-width="2" fill="none" />
  <line x1="640" y1="138" x2="645" y2="143" stroke="#9ca3af" stroke-width="2" />
  
  <!-- Table header -->
  <rect x="20" y="190" width="760" height="40" rx="8" fill="#f3f4f6" />
  <text x="40" y="215" font-family="Arial" font-size="14" font-weight="bold" fill="#374151">Bill</text>
  <text x="200" y="215" font-family="Arial" font-size="14" font-weight="bold" fill="#374151">Income Source</text>
  <text x="360" y="215" font-family="Arial" font-size="14" font-weight="bold" fill="#374151">Amount</text>
  <text x="450" y="215" font-family="Arial" font-size="14" font-weight="bold" fill="#374151">Date</text>
  <text x="550" y="215" font-family="Arial" font-size="14" font-weight="bold" fill="#374151">Status</text>
  <text x="680" y="215" font-family="Arial" font-size="14" font-weight="bold" fill="#374151">Actions</text>
  
  <!-- Table row 1 -->
  <rect x="20" y="230" width="760" height="60" rx="8" fill="white" stroke="#ddd" stroke-width="1" />
  <text x="40" y="265" font-family="Arial" font-size="14" fill="#374151">Electric Company</text>
  <text x="200" y="265" font-family="Arial" font-size="14" fill="#374151">April Paycheck</text>
  <text x="360" y="265" font-family="Arial" font-size="14" fill="#374151">$120.50</text>
  <text x="450" y="265" font-family="Arial" font-size="14" fill="#374151">Apr 25, 2025</text>
  
  <!-- Status badge - Pending -->
  <rect x="550" y="250" width="80" height="24" rx="12" fill="#fef3c7" />
  <text x="574" y="266" font-family="Arial" font-size="12" fill="#92400e">Pending</text>
  
  <!-- Action buttons -->
  <rect x="650" y="250" width="36" height="24" rx="4" fill="#e0e7ff" />
  <text x="661" y="266" font-family="Arial" font-size="12" fill="#4f46e5">Edit</text>
  
  <rect x="694" y="250" width="36" height="24" rx="4" fill="#fee2e2" />
  <text x="703" y="266" font-family="Arial" font-size="12" fill="#dc2626">X</text>
  
  <!-- Table row 2 -->
  <rect x="20" y="290" width="760" height="60" rx="8" fill="white" stroke="#ddd" stroke-width="1" />
  <text x="40" y="325" font-family="Arial" font-size="14" fill="#374151">Rent</text>
  <text x="200" y="325" font-family="Arial" font-size="14" fill="#374151">April Paycheck</text>
  <text x="360" y="325" font-family="Arial" font-size="14" fill="#374151">$500.00</text>
  <text x="450" y="325" font-family="Arial" font-size="14" fill="#374151">Apr 30, 2025</text>
  
  <!-- Status badge - Paid -->
  <rect x="550" y="310" width="80" height="24" rx="12" fill="#d1fae5" />
  <text x="578" y="326" font-family="Arial" font-size="12" fill="#047857">Paid</text>
  
  <!-- Action buttons -->
  <rect x="650" y="310" width="36" height="24" rx="4" fill="#e0e7ff" />
  <text x="661" y="326" font-family="Arial" font-size="12" fill="#4f46e5">Edit</text>
  
  <rect x="694" y="310" width="36" height="24" rx="4" fill="#fee2e2" />
  <text x="703" y="326" font-family="Arial" font-size="12" fill="#dc2626">X</text>
  
  <!-- Table row 3 -->
  <rect x="20" y="350" width="760" height="60" rx="8" fill="white" stroke="#ddd" stroke-width="1" />
  <text x="40" y="385" font-family="Arial" font-size="14" fill="#374151">Credit Card</text>
  <text x="200" y="385" font-family="Arial" font-size="14" fill="#374151">May Paycheck</text>
  <text x="360" y="385" font-family="Arial" font-size="14" fill="#374151">$350.00</text>
  <text x="450" y="385" font-family="Arial" font-size="14" fill="#374151">May 15, 2025</text>
  
  <!-- Status badge - Scheduled -->
  <rect x="550" y="370" width="80" height="24" rx="12" fill="#fee2e2" />
  <text x="564" y="386" font-family="Arial" font-size="12" fill="#b91c1c">Canceled</text>
  
  <!-- Action buttons -->
  <rect x="650" y="370" width="36" height="24" rx="4" fill="#e0e7ff" />
  <text x="661" y="386" font-family="Arial" font-size="12" fill="#4f46e5">Edit</text>
  
  <rect x="694" y="370" width="36" height="24" rx="4" fill="#fee2e2" />
  <text x="703" y="386" font-family="Arial" font-size="12" fill="#dc2626">X</text>
  
  <!-- Pagination controls -->
  <rect x="300" y="430" width="200" height="40" rx="8" fill="white" />
  <rect x="330" y="440" width="30" height="20" rx="4" fill="#f3f4f6" />
  <text x="340" y="455" font-family="Arial" font-size="14" fill="#374151">1</text>
  
  <rect x="370" y="440" width="30" height="20" rx="4" fill="#304c72" />
  <text x="380" y="455" font-family="Arial" font-size="14" fill="white">2</text>
  
  <rect x="410" y="440" width="30" height="20" rx="4" fill="#f3f4f6" />
  <text x="420" y="455" font-family="Arial" font-size="14" fill="#374151">3</text>
  
  <rect x="450" y="440" width="30" height="20" rx="4" fill="#f3f4f6" />
  <text x="460" y="455" font-family="Arial" font-size="14" fill="#374151">></text>
  
  <!-- Add New Allocation Button -->
  <rect x="630" y="430" width="150" height="40" rx="8" fill="#304c72" />
  <text x="655" y="455" font-family="Arial" font-size="14" fill="white">+ New Allocation</text>
  
  <!-- Edit Allocation Modal -->
  <rect x="150" y="120" width="500" height="360" rx="12" fill="white" stroke="#304c72" stroke-width="2" />
  <rect x="150" y="120" width="500" height="60" rx="12" fill="#304c72" />
  <text x="180" y="158" font-family="Arial" font-size="18" fill="white">Edit Allocation</text>
  <text x="610" y="158" font-family="Arial" font-size="18" fill="white">×</text>
  
  <!-- Modal form fields -->
  <text x="180" y="210" font-family="Arial" font-size="14" fill="#374151">Bill</text>
  <rect x="180" y="220" width="440" height="36" rx="4" fill="white" stroke="#ddd" stroke-width="1" />
  <text x="195" y="243" font-family="Arial" font-size="14" fill="#374151">Electric Company (due Apr 28, 2025)</text>
  
  <text x="180" y="280" font-family="Arial" font-size="14" fill="#374151">Income Source</text>
  <rect x="180" y="290" width="440" height="36" rx="4" fill="white" stroke="#ddd" stroke-width="1" />
  <text x="195" y="313" font-family="Arial" font-size="14" fill="#374151">April Paycheck ($1,500.00)</text>
  
  <text x="180" y="350" font-family="Arial" font-size="14" fill="#374151">Amount</text>
  <rect x="180" y="360" width="200" height="36" rx="4" fill="white" stroke="#ddd" stroke-width="1" />
  <text x="195" y="383" font-family="Arial" font-size="14" fill="#374151">$120.50</text>
  
  <text x="400" y="350" font-family="Arial" font-size="14" fill="#374151">Scheduled Date</text>
  <rect x="400" y="360" width="220" height="36" rx="4" fill="white" stroke="#ddd" stroke-width="1" />
  <text x="415" y="383" font-family="Arial" font-size="14" fill="#374151">2025-04-25</text>
  
  <text x="180" y="420" font-family="Arial" font-size="14" fill="#374151">Status</text>
  <rect x="180" y="430" width="200" height="36" rx="4" fill="white" stroke="#ddd" stroke-width="1" />
  <text x="195" y="453" font-family="Arial" font-size="14" fill="#374151">Pending</text>
  <path d="M365 440 L375 450 L355 450 Z" fill="#374151" />
  
  <!-- Modal action buttons -->
  <rect x="350" y="430" width="120" height="36" rx="4" fill="#f3f4f6" />
  <text x="387" y="453" font-family="Arial" font-size="14" fill="#374151">Cancel</text>
  
  <rect x="480" y="430" width="140" height="36" rx="4" fill="#304c72" />
  <text x="512" y="453" font-family="Arial" font-size="14" fill="white">Save Changes</text>
</svg>